<?xml version="1.0" encoding="utf-8"?>
<!-- Generator: Adobe Illustrator 18.1.1, SVG Export Plug-In . SVG Version: 6.00 Build 0)  -->
<svg version="1.1" id="Layer_2" xmlns="http://www.w3.org/2000/svg" xmlns:xlink="http://www.w3.org/1999/xlink" x="0px" y="0px"
	 viewBox="0 0 1224 792" enable-background="new 0 0 1224 792" xml:space="preserve">
<path fill="none" stroke="#000000" stroke-miterlimit="10" d="M660,390.5h-95c-6.6,0-12-5.4-12-12v-93c0-6.6,5.4-12,12-12h95
	c6.6,0,12,5.4,12,12v93C672,385.1,666.6,390.5,660,390.5z"/>
<path fill="none" stroke="#000000" stroke-miterlimit="10" d="M653.5,378.9h-81.9c-2.2,0-4-1.8-4-4v-92c0-2.2,1.8-4,4-4h81.9
	c2.2,0,4,1.8,4,4v92C657.5,377.1,655.7,378.9,653.5,378.9z"/>
<polygon points="601.8,316 592.5,296.2 582.7,316 590.3,316 590.3,344.2 594.7,344.2 594.7,316 "/>
<path fill="none" stroke="#000000" stroke-miterlimit="10" d="M660,517.9h-95c-6.6,0-12-5.4-12-12v-93c0-6.6,5.4-12,12-12h95
	c6.6,0,12,5.4,12,12v93C672,512.5,666.6,517.9,660,517.9z"/>
<path fill="none" stroke="#000000" stroke-miterlimit="10" d="M653.5,506.2h-81.9c-2.2,0-4-1.8-4-4v-92c0-2.2,1.8-4,4-4h81.9
	c2.2,0,4,1.8,4,4v92C657.5,504.4,655.7,506.2,653.5,506.2z"/>
<polygon points="582.7,457.8 592,477.5 601.8,457.8 594.2,457.8 594.2,429.6 589.8,429.6 589.8,457.8 "/>
<path fill="none" stroke="#000000" stroke-miterlimit="10" d="M788,517.9h-95c-6.6,0-12-5.4-12-12v-93c0-6.6,5.4-12,12-12h95
	c6.6,0,12,5.4,12,12v93C800,512.5,794.6,517.9,788,517.9z"/>
<path fill="none" stroke="#000000" stroke-miterlimit="10" d="M781.5,506.2h-81.9c-2.2,0-4-1.8-4-4v-92c0-2.2,1.8-4,4-4h81.9
	c2.2,0,4,1.8,4,4v92C785.5,504.4,783.7,506.2,781.5,506.2z"/>
<polygon points="744.7,463.1 764.5,453.8 744.7,444 744.7,451.6 716.5,451.6 716.5,456 744.7,456 "/>
<path fill="none" stroke="#000000" stroke-miterlimit="10" d="M531,517.9h-95c-6.6,0-12-5.4-12-12v-93c0-6.6,5.4-12,12-12h95
	c6.6,0,12,5.4,12,12v93C543,512.5,537.6,517.9,531,517.9z"/>
<path fill="none" stroke="#000000" stroke-miterlimit="10" d="M524.5,506.2h-81.9c-2.2,0-4-1.8-4-4v-92c0-2.2,1.8-4,4-4h81.9
	c2.2,0,4,1.8,4,4v92C528.5,504.4,526.7,506.2,524.5,506.2z"/>
<polygon points="479.3,444 459.5,453.3 479.3,463.1 479.3,455.5 507.5,455.5 507.5,451.1 479.3,451.1 "/>
</svg>
