<?xml version="1.0" encoding="utf-8"?>
<!-- Generator: Adobe Illustrator 18.1.1, SVG Export Plug-In . SVG Version: 6.00 Build 0)  -->
<svg version="1.1" id="Layer_1" xmlns="http://www.w3.org/2000/svg" xmlns:xlink="http://www.w3.org/1999/xlink" x="0px" y="0px"
	 viewBox="0 0 188 133" enable-background="new 0 0 188 133" xml:space="preserve">
<polygon fill="#FFFFFF" stroke-linecap="round" stroke-linejoin="round" stroke-miterlimit="10" points="
	181.3,105.9 32.6,128.8 32.6,73.5 184,54.7 "/>
<polygon fill="none" stroke-linecap="round" stroke-linejoin="round" stroke-miterlimit="10" points="162.6,38.4 
	11.6,53 32.6,73.5 184,54.7 "/>
<polygon fill="#FFFFFF" stroke-linecap="round" stroke-linejoin="round" stroke-miterlimit="10" points="
	162.6,38.4 11.6,53 4.3,13.5 156.9,3.2 "/>
<polygon fill="#FFFFFF" stroke-linecap="round" stroke-linejoin="round" stroke-miterlimit="10" points="
	11.6,101.5 32.6,128.8 32.6,73.5 11.6,53 "/>
<line fill="none" stroke-linecap="round" stroke-linejoin="round" stroke-miterlimit="10" x1="36.9" y1="72.8" x2="15.6" y2="53"/>
<line fill="none" stroke-linecap="round" stroke-linejoin="round" stroke-miterlimit="10" x1="40.7" y1="72.2" x2="20.2" y2="53"/>
<line fill="none" stroke-linecap="round" stroke-linejoin="round" stroke-miterlimit="10" x1="44.8" y1="71.7" x2="23.6" y2="51.9"/>
<line fill="none" stroke-linecap="round" stroke-linejoin="round" stroke-miterlimit="10" x1="49" y1="70.9" x2="28.2" y2="51.4"/>
<line fill="none" stroke-linecap="round" stroke-linejoin="round" stroke-miterlimit="10" x1="53.6" y1="70.9" x2="32.3" y2="51.1"/>
<line fill="none" stroke-linecap="round" stroke-linejoin="round" stroke-miterlimit="10" x1="57" y1="69.8" x2="36.5" y2="50.6"/>
<line fill="none" stroke-linecap="round" stroke-linejoin="round" stroke-miterlimit="10" x1="61.1" y1="69.8" x2="40.4" y2="50.5"/>
<line fill="none" stroke-linecap="round" stroke-linejoin="round" stroke-miterlimit="10" x1="65" y1="69.2" x2="45" y2="50.5"/>
<line fill="none" stroke-linecap="round" stroke-linejoin="round" stroke-miterlimit="10" x1="69.3" y1="68.9" x2="48.4" y2="49.4"/>
<line fill="none" stroke-linecap="round" stroke-linejoin="round" stroke-miterlimit="10" x1="72.8" y1="68.3" x2="52.5" y2="49.4"/>
<line fill="none" stroke-linecap="round" stroke-linejoin="round" stroke-miterlimit="10" x1="76.7" y1="67.7" x2="57.1" y2="49.4"/>
<line fill="none" stroke-linecap="round" stroke-linejoin="round" stroke-miterlimit="10" x1="80.6" y1="67" x2="60.5" y2="48.3"/>
<line fill="none" stroke-linecap="round" stroke-linejoin="round" stroke-miterlimit="10" x1="84.7" y1="66.9" x2="64.8" y2="48.3"/>
<line fill="none" stroke-linecap="round" stroke-linejoin="round" stroke-miterlimit="10" x1="88.4" y1="66.1" x2="69.3" y2="48.3"/>
<line fill="none" stroke-linecap="round" stroke-linejoin="round" stroke-miterlimit="10" x1="92.9" y1="66" x2="72.8" y2="47.3"/>
<line fill="none" stroke-linecap="round" stroke-linejoin="round" stroke-miterlimit="10" x1="96.7" y1="65.3" x2="77" y2="46.9"/>
<line fill="none" stroke-linecap="round" stroke-linejoin="round" stroke-miterlimit="10" x1="100.7" y1="64.7" x2="81.2" y2="46.6"/>
<line fill="none" stroke-linecap="round" stroke-linejoin="round" stroke-miterlimit="10" x1="105" y1="64.5" x2="85.3" y2="46.1"/>
<line fill="none" stroke-linecap="round" stroke-linejoin="round" stroke-miterlimit="10" x1="108.6" y1="63.7" x2="89.4" y2="45.5"/>
<line fill="none" stroke-linecap="round" stroke-linejoin="round" stroke-miterlimit="10" x1="113" y1="63.5" x2="93.5" y2="45.4"/>
<line fill="none" stroke-linecap="round" stroke-linejoin="round" stroke-miterlimit="10" x1="117.1" y1="63" x2="97.8" y2="44.7"/>
<line fill="none" stroke-linecap="round" stroke-linejoin="round" stroke-miterlimit="10" x1="121.1" y1="62.5" x2="101.8" y2="44.5"/>
<line fill="none" stroke-linecap="round" stroke-linejoin="round" stroke-miterlimit="10" x1="124.8" y1="61.7" x2="105.9" y2="44.1"/>
<line fill="none" stroke-linecap="round" stroke-linejoin="round" stroke-miterlimit="10" x1="129" y1="61.3" x2="109.9" y2="43.5"/>
<line fill="none" stroke-linecap="round" stroke-linejoin="round" stroke-miterlimit="10" x1="132.8" y1="60.7" x2="114.1" y2="43.3"/>
<line fill="none" stroke-linecap="round" stroke-linejoin="round" stroke-miterlimit="10" x1="136.7" y1="60.2" x2="118.2" y2="42.8"/>
<line fill="none" stroke-linecap="round" stroke-linejoin="round" stroke-miterlimit="10" x1="141.1" y1="59.9" x2="122.2" y2="42.3"/>
<line fill="none" stroke-linecap="round" stroke-linejoin="round" stroke-miterlimit="10" x1="145.2" y1="59.3" x2="126.5" y2="41.9"/>
<line fill="none" stroke-linecap="round" stroke-linejoin="round" stroke-miterlimit="10" x1="149.1" y1="58.8" x2="130.6" y2="41.5"/>
<line fill="none" stroke-linecap="round" stroke-linejoin="round" stroke-miterlimit="10" x1="153.5" y1="58.5" x2="135" y2="41.3"/>
<line fill="none" stroke-linecap="round" stroke-linejoin="round" stroke-miterlimit="10" x1="158" y1="57.7" x2="139.4" y2="40.6"/>
<line fill="none" stroke-linecap="round" stroke-linejoin="round" stroke-miterlimit="10" x1="161.9" y1="57.1" x2="143.7" y2="40.1"/>
<line fill="none" stroke-linecap="round" stroke-linejoin="round" stroke-miterlimit="10" x1="166.3" y1="56.9" x2="147.9" y2="40.1"/>
<line fill="none" stroke-linecap="round" stroke-linejoin="round" stroke-miterlimit="10" x1="170.1" y1="55.9" x2="151.6" y2="39.4"/>
<line fill="none" stroke-linecap="round" stroke-linejoin="round" stroke-miterlimit="10" x1="174" y1="55.4" x2="156.1" y2="39"/>
<line fill="none" stroke-linecap="round" stroke-linejoin="round" stroke-miterlimit="10" x1="178.4" y1="55.1" x2="159.8" y2="39"/>
</svg>
